<svg xmlns="http://www.w3.org/2000/svg" xmlns:xlink="http://www.w3.org/1999/xlink" width="500" zoomAndPan="magnify" viewBox="0 0 375 374.999991" height="500" preserveAspectRatio="xMidYMid meet" version="1.2"><defs><clipPath id="d4fa757391"><path d="M 66.722656 20.820312 L 308.222656 20.820312 L 308.222656 353.820312 L 66.722656 353.820312 Z M 66.722656 20.820312 "/></clipPath></defs><g id="c4b94545d1"><g clip-rule="nonzero" clip-path="url(#d4fa757391)"><path style=" stroke:none;fill-rule:nonzero;fill:#000000;fill-opacity:1;" d="M 308.011719 120.792969 L 308.011719 190.710938 L 209.511719 190.710938 C 208.320312 190.714844 207.128906 190.773438 205.945312 190.890625 C 204.757812 191.007812 203.578125 191.183594 202.410156 191.417969 C 201.238281 191.652344 200.082031 191.941406 198.941406 192.289062 C 197.800781 192.636719 196.679688 193.039062 195.578125 193.496094 C 194.476562 193.953125 193.398438 194.464844 192.347656 195.027344 C 191.296875 195.589844 190.273438 196.199219 189.28125 196.863281 C 188.289062 197.527344 187.332031 198.238281 186.410156 198.992188 C 185.488281 199.75 184.605469 200.550781 183.761719 201.394531 C 182.921875 202.238281 182.121094 203.121094 181.363281 204.042969 C 180.605469 204.964844 179.894531 205.921875 179.234375 206.914062 C 178.570312 207.902344 177.957031 208.925781 177.394531 209.976562 C 176.832031 211.027344 176.320312 212.105469 175.863281 213.207031 C 175.40625 214.308594 175.003906 215.429688 174.65625 216.570312 C 174.308594 217.710938 174.019531 218.867188 173.785156 220.039062 C 173.550781 221.207031 173.375 222.386719 173.257812 223.574219 C 173.140625 224.761719 173.078125 225.949219 173.078125 227.144531 L 173.078125 247.308594 C 173.078125 305.953125 125.386719 353.65625 66.722656 353.65625 C 93.203125 327.183594 103.152344 297.867188 103.152344 247.316406 L 103.152344 227.152344 C 103.152344 168.507812 150.84375 120.792969 209.511719 120.792969 Z M 236.847656 20.976562 C 148.214844 28.144531 104.734375 86.539062 104.734375 143.214844 L 104.675781 143.550781 C 131.332031 111.40625 171.546875 90.894531 216.453125 90.894531 L 308.011719 90.894531 L 308.011719 20.976562 Z M 236.847656 20.976562 "/></g></g></svg>